<?xml version="1.0" encoding="utf-8"?>
<!-- Generator: Adobe Illustrator 17.1.0, SVG Export Plug-In . SVG Version: 6.00 Build 0)  -->
<!DOCTYPE svg PUBLIC "-//W3C//DTD SVG 1.1//EN" "http://www.w3.org/Graphics/SVG/1.1/DTD/svg11.dtd">
<svg version="1.1" id="Слой_1" xmlns="http://www.w3.org/2000/svg" xmlns:xlink="http://www.w3.org/1999/xlink" x="0px" y="0px"
	 viewBox="0 0 324.5 59.3" enable-background="new 0 0 324.5 59.3" xml:space="preserve">
<image display="none" overflow="visible" enable-background="new    " width="663" height="257" xlink:href="78BC5B8D.jpeg"  transform="matrix(0 0 0 0 -6 48)">
</image>
<image display="none" overflow="visible" enable-background="new    " width="613" height="192" xlink:href="78BC5B8F.jpeg"  transform="matrix(0.75 0 0 0.75 5.3333 -120)">
</image>
<text transform="matrix(0.972 0 0 1 94.4344 58.416)" fill="#515151" font-family="'Circe-Regular'" font-size="10" letter-spacing="16.5">LUXURY WIGS</text>
<g>
	<g>
		<path fill="none" d="M110.2,30c-2.7,0-2.7,0-2.7,0s0,0-2.7,0c-4.8,0-8.8,3-8.8,6c0,3.1,4,6,8.8,6c2.7,0,2.7,0,2.7,0s0,0,2.7,0
			c4.8,0,8.8-3,8.8-6C119,33,115,30,110.2,30z"/>
		<path fill="#5E5E5E" d="M111.1,29.5c-3.5,0-3.5,0-3.5,0s0,0-3.5,0c-6.3,0-11.5,3.6-11.5,6.7c0,3.1,5.3,6.7,11.5,6.7
			c3.5,0,3.5,0,3.5,0s0,0,3.5,0c6.3,0,11.5-3.6,11.5-6.7S117.3,29.5,111.1,29.5z M110.2,42.2c-2.7,0-2.7,0-2.7,0s0,0-2.7,0
			c-4.8,0-8.8-3-8.8-6c0-3.1,4-6,8.8-6c2.7,0,2.7,0,2.7,0s0,0,2.7,0c4.8,0,8.8,3,8.8,6C119,39.2,115,42.2,110.2,42.2z"/>
	</g>
	<g>
		<path fill="none" d="M208.9,30c-2.7,0-2.7,0-2.7,0s0,0-2.7,0c-4.8,0-8.8,3-8.8,6c0,3.1,4,6,8.8,6c2.7,0,2.7,0,2.7,0s0,0,2.7,0
			c4.8,0,8.8-3,8.8-6S213.7,30,208.9,30z"/>
		<path fill="#515050" d="M209.7,29.5c-3.5,0-3.5,0-3.5,0s0,0-3.5,0c-6.3,0-11.5,3.6-11.5,6.7c0,3.1,5.3,6.7,11.5,6.7
			c3.5,0,3.5,0,3.5,0s0,0,3.5,0c6.3,0,11.5-3.6,11.5-6.7C221.3,33,216,29.5,209.7,29.5z M208.9,42.2c-2.7,0-2.7,0-2.7,0s0,0-2.7,0
			c-4.8,0-8.8-3-8.8-6c0-3.1,4-6,8.8-6c2.7,0,2.7,0,2.7,0s0,0,2.7,0c4.8,0,8.8,3,8.8,6S213.7,42.2,208.9,42.2z"/>
	</g>
	<g>
		<path fill="#515050" d="M138.2,42.2c-4.8,0-8.3-3.1-8.3-6h22.4h3.6c0-3.1-5.3-6.7-11.5-6.7c-3.5,0-3.5,0-3.5,0s0,0-3.5,0
			c-6.3,0-11.5,3.6-11.5,6.7c0,3.1,5.3,6.7,11.5,6.7c3.5,0,3.5,0,3.5,0s10.8,0,14.2,0v-0.6c-2.7,0-14.2,0-14.2,0
			S140.9,42.2,138.2,42.2z M138.2,30c2.7,0,2.7,0,2.7,0s0,0,2.7,0c4.4,0,8.2,2.6,8.2,5.4H130C130,32.7,133.8,30,138.2,30z"/>
	</g>
	<path fill="#515050" d="M320.4,35.5L320.4,35.5h-21.8c0-2.8,3.8-5.4,8.2-5.4c2.7,0,2.7,0,2.7,0s7.8,0,10.5,0l0.8-0.6
		c-3.5,0-11.3,0-11.3,0s0,0-3.5,0c-6.3,0-11.5,3.6-11.5,6.7h4.1l0,0h21.8c0,2.8-3.8,5.4-8.2,5.4c-2.7,0-2.7,0-2.7,0s-7.8,0-10.5,0
		l-0.8,0.6c3.5,0,11.3,0,11.3,0s0,0,3.5,0c6.3,0,11.5-3.6,11.5-6.7H320.4z"/>
	<g>
		<path fill="none" d="M242.4,30c-2.7,0-2.7,0-2.7,0s0,0-2.7,0c-4.8,0-8.8,3-8.8,6c0,3.1,4,6,8.8,6c2.7,0,2.7,0,2.7,0s0,0,2.7,0
			c3.7,0,6.2-1.8,7.1-4v-4C248.5,31.8,246.1,30,242.4,30z"/>
		<path fill="#515050" d="M251.5,8h-1.1c-0.5,0-1,0.4-1,1v22.3c-1.4-1.1-3.4-1.9-6.2-1.9c-3.5,0-3.5,0-3.5,0s0,0-3.5,0
			c-6.3,0-11.5,3.6-11.5,6.7s5.3,6.7,11.5,6.7c3.5,0,3.5,0,3.5,0s0,0,3.5,0c2.9,0,4.9-0.7,6.2-1.8v0.8c0,0.5,0.4,1,1,1h1.1
			c0.5,0,1-0.4,1-1V9C252.5,8.5,252,8,251.5,8z M242.4,42.2c-2.7,0-2.7,0-2.7,0s0,0-2.7,0c-4.8,0-8.8-3-8.8-6c0-3.1,4-6,8.8-6
			c2.7,0,2.7,0,2.7,0s0,0,2.7,0c3.7,0,6.2,1.8,7.1,4v4C248.5,40.3,246.1,42.2,242.4,42.2z"/>
	</g>
	<path fill="#515050" d="M278.9,29.5c-0.1,0-0.3,0-0.4,0c-0.7,0-0.9,0-0.9,0c-0.1,0-0.2,0-0.4,0c-2.7,0-5.1,0.7-6.8,1.7
		c0-0.4,0-0.7,0-1V30c0-0.5-0.4-1-1-1h-1.1c-0.5,0-1,0.4-1,1v11.8c0,0.5,0.4,1,1,1h1.1c0.5,0,1-0.4,1-1v-7.6c0-0.3,0-0.6,0-1
		c1.5-1.8,4.4-3.2,7.6-3.2c4.8,0,9.3,3,9.3,6v5.7c0,0.5-0.1,1,0.5,1h1.6c0.5,0,1-0.4,1-1V36C290.5,33,285.2,29.5,278.9,29.5z"/>
	<g>
		<g>
			<path fill="#515050" d="M262,41.8c0,0.5-0.4,1-1,1h-1.1c-0.5,0-1-0.4-1-1V15.1c0-0.5,0.4-1,1-1h1.1c0.5,0,1,0.4,1,1V41.8z"/>
		</g>
		<g>
			<path fill="#515050" d="M262,10.3c0,0.5-0.4,1-1,1h-1.1c-0.5,0-1-0.4-1-1V9.1c0-0.5,0.4-1,1-1h1.1c0.5,0,1,0.4,1,1V10.3z"/>
		</g>
	</g>
	<path fill="#515050" d="M103.5,10.5l-0.8-0.6c0,0-33.6,39.3-47.9,38.9c-0.1,0,0,0,0,0C40.6,49.3,6.9,9.9,6.9,9.9l-0.8,0.6
		c0,0,17.1,21.9,31.5,36.3c7.2,7.2,12.3,11.6,16.5,12.4c0.2,0.1,0.4,0.1,0.7,0.1c0.2,0,0.4,0,0.7-0.1c4.2-0.7,9.3-5.2,16.5-12.4
		C86.5,32.5,103.5,10.5,103.5,10.5z"/>
	<path fill="#515050" d="M190.5,29.2l-0.8-0.2c0,0-10.8,13.2-15.6,13l0,0c-4.8,0.1-15.6-13-15.6-13l-0.8,0.2c0,0,5.7,7.3,10.6,12.2
		c2.4,2.4,4.1,3.9,5.5,4.1c0.1,0,0.1,0,0.2,0c0.1,0,0.1,0,0.2,0c1.4-0.2,3.1-1.7,5.5-4.1C184.8,36.5,190.5,29.2,190.5,29.2z"/>
</g>
</svg>
